<svg width="820" height="220" viewBox="0 0 820 220" fill="none" xmlns="http://www.w3.org/2000/svg" role="img" aria-label="Utsavora wordmark">
  <defs>
    <linearGradient id="g" x1="34" y1="24" x2="186" y2="196" gradientUnits="userSpaceOnUse">
      <stop stop-color="#6366F1"/>
      <stop offset="0.55" stop-color="#10B981"/>
      <stop offset="1" stop-color="#A855F7"/>
    </linearGradient>
  </defs>

  <!-- Icon -->
  <g>
    <rect x="20" y="20" width="180" height="180" rx="52" fill="url(#g)"/>
    <circle cx="72" cy="70" r="5.5" fill="white" fill-opacity="0.85"/>
    <circle cx="150" cy="78" r="4.8" fill="white" fill-opacity="0.75"/>
    <circle cx="142" cy="152" r="5.4" fill="white" fill-opacity="0.75"/>
    <path d="M80 76V126C80 148.7 98.3 167 121 167C143.7 167 162 148.7 162 126V76" stroke="white" stroke-width="16" stroke-linecap="round"/>
    <path d="M126 46L131 60L145 65L131 70L126 84L121 70L107 65L121 60L126 46Z" fill="white" fill-opacity="0.92"/>
  </g>

  <!-- Wordmark -->
  <g fill="#0F172A">
    <path d="M272.6 158.5c-14.4 0-25.7-4.3-33.8-13-8-8.7-12.1-21.1-12.1-37.1V66.3h20.3v42.8c0 10.9 2.1 19 6.4 24.3 4.4 5.3 10.9 8 19.7 8 8.9 0 15.5-2.7 19.7-8 4.4-5.3 6.5-13.4 6.5-24.3V66.3h20.1v42.1c0 16-4 28.4-12.1 37.1-8 8.7-19.3 13-33.7 13Z"/>
    <path d="M400.4 158.5c-9.2 0-17.2-1.9-24-5.6-6.8-3.7-12-8.9-15.8-15.5-3.7-6.7-5.6-14.4-5.6-23.2 0-8.8 1.9-16.5 5.6-23.1 3.8-6.7 9-11.9 15.8-15.6 6.8-3.8 14.8-5.7 24-5.7 8.3 0 15.6 1.5 21.9 4.6 6.3 3.1 11.2 7.6 14.7 13.6l-15.6 9c-2.6-3.9-5.7-6.8-9.5-8.7-3.7-1.9-7.8-2.9-12.3-2.9-6.9 0-12.7 2.3-17.2 6.9-4.5 4.5-6.7 10.9-6.7 19.1 0 8.1 2.2 14.5 6.7 19.1 4.5 4.5 10.3 6.8 17.2 6.8 4.5 0 8.6-0.9 12.3-2.8 3.8-1.9 6.9-4.8 9.5-8.7l15.6 9c-3.5 5.9-8.4 10.4-14.7 13.6-6.3 3.1-13.6 4.7-21.9 4.7Z"/>
    <path d="M512.9 157.3 480.5 114l32.1-42.9h21.7l-42.9 56.2v-26l43.4 56h-21.9Z"/>
    <path d="M459.1 157.3V63.9h20v93.4h-20Z"/>
    <path d="M590.8 158.5c-9.4 0-17.6-1.9-24.6-5.7-6.9-3.8-12.3-9-16.2-15.6-3.8-6.7-5.7-14.4-5.7-23.1 0-8.8 1.9-16.5 5.7-23.1 3.9-6.7 9.3-11.9 16.2-15.6 7-3.8 15.2-5.7 24.6-5.7 9.3 0 17.5 1.9 24.4 5.7 7 3.7 12.4 8.9 16.2 15.6 3.9 6.6 5.8 14.3 5.8 23.1 0 8.7-1.9 16.4-5.8 23.1-3.8 6.6-9.2 11.8-16.2 15.6-6.9 3.8-15.1 5.7-24.4 5.7Zm0-16.9c6.6 0 12.1-2.3 16.5-6.9 4.4-4.6 6.6-10.9 6.6-18.9 0-8.1-2.2-14.5-6.6-19.1-4.4-4.6-9.9-6.9-16.5-6.9-6.7 0-12.2 2.3-16.6 6.9-4.3 4.6-6.5 11-6.5 19.1 0 8 2.2 14.3 6.5 18.9 4.4 4.6 9.9 6.9 16.6 6.9Z"/>
    <path d="M664.1 157.3V71.1h19.1v23.6l-2.1-6.9c2.5-5.8 6.6-10.3 12.2-13.3 5.7-3.1 12.7-4.7 21-4.7v19c-0.9-0.2-1.8-0.3-2.6-0.4-0.7-0.1-1.5-0.1-2.3-0.1-7.4 0-13.3 2.2-17.7 6.6-4.3 4.4-6.5 10.8-6.5 19.3v43.1h-21.1Z"/>
    <path d="M768.9 158.5c-7.2 0-13.5-1.3-19-3.9-5.4-2.7-9.6-6.4-12.5-11.3-2.9-5-4.3-10.8-4.3-17.5V71.1h21.1v51.7c0 6.4 1.6 11.3 4.9 14.7 3.3 3.4 7.9 5.1 13.9 5.1 4.2 0 7.9-0.9 11-2.7 3.2-1.9 5.6-4.5 7.4-7.9 1.8-3.4 2.7-7.7 2.7-12.8V71.1h21.1v86.2h-20.1v-23.2l3.5 7c-2.9 5.7-7.2 10-12.8 13.1-5.5 2.9-11.7 4.3-18.8 4.3Z"/>
  </g>
</svg>
